<svg width="616" height="1558" viewBox="0 0 616 1558" fill="none" xmlns="http://www.w3.org/2000/svg">
<path d="M227.219 1333.29C217.358 1331.17 203.208 1325.17 187.111 1316.61C171.056 1308.08 153.208 1297.1 135.988 1285.13C118.767 1273.17 102.208 1260.24 88.7232 1247.84C75.4346 1235.62 65.2834 1224.04 60.3375 1214.49C61.3894 1205.78 68.3526 1198.65 80.9592 1193.05C93.7875 1187.36 111.936 1183.51 133.895 1181.24C177.775 1176.7 236.264 1178.52 296.319 1183.99C356.428 1189.46 412.617 1196.06 453.297 1206.28C473.656 1211.4 489.954 1217.39 500.894 1224.48C511.6 1231.43 516.776 1239.15 516.222 1247.9C509.624 1256.37 497.594 1266 482.174 1275.84C466.52 1285.82 447.54 1295.9 427.604 1305.07C387.688 1323.42 344.213 1337.98 316.12 1340.84C297.969 1342.12 285.868 1342.39 273.281 1341.27C260.667 1340.15 247.506 1337.64 227.219 1333.29Z" fill="white" stroke="#283820" stroke-width="4"/>
<path d="M545.987 1223.28C544.781 1236.52 536.759 1248.74 522.821 1259.46C508.881 1270.18 489.183 1279.28 465.061 1286.28C416.83 1300.26 351.325 1305.71 280.007 1299.22C208.69 1292.73 145.245 1275.54 100.331 1253.08C77.8684 1241.84 60.1376 1229.34 48.363 1216.27C36.5905 1203.21 30.905 1189.75 32.111 1176.5C33.3169 1163.25 41.3389 1151.04 55.2765 1140.32C69.2166 1129.59 88.9142 1120.49 113.036 1113.5C161.268 1099.51 226.773 1094.07 298.09 1100.56C369.407 1107.05 432.853 1124.24 477.766 1146.7C500.229 1157.93 517.96 1170.44 529.734 1183.51C541.507 1196.57 547.192 1210.03 545.987 1223.28Z" fill="white" stroke="#283820" stroke-width="4"/>
<path d="M536.387 1221.17C535.317 1232.94 527.769 1243.81 514.473 1253.36C501.183 1262.9 482.359 1270.96 459.27 1277.11C413.11 1289.41 350.34 1293.93 281.931 1287.71C213.522 1281.48 152.602 1265.69 109.42 1245.27C87.821 1235.05 70.7617 1223.72 59.4134 1211.93C48.0601 1200.14 42.5993 1188.09 43.6702 1176.33C44.741 1164.56 52.2882 1153.69 65.5841 1144.14C78.8741 1134.6 97.6987 1126.54 120.787 1120.39C166.947 1108.09 229.717 1103.57 298.126 1109.79C366.535 1116.02 427.456 1131.81 470.638 1152.23C492.236 1162.45 509.296 1173.78 520.644 1185.56C531.997 1197.36 537.458 1209.41 536.387 1221.17Z" fill="white" stroke="#283820" stroke-width="4"/>
<path d="M472.009 1226.99C471.265 1235.16 465.799 1242.8 455.906 1249.57C446.027 1256.33 431.982 1262.04 414.698 1266.38C380.147 1275.04 333.097 1278.1 281.764 1273.42C230.431 1268.75 184.706 1257.25 152.288 1242.49C136.07 1235.11 123.287 1226.95 114.791 1218.52C106.283 1210.08 102.286 1201.58 103.03 1193.4C103.774 1185.23 109.24 1177.59 119.133 1170.82C129.012 1164.06 143.057 1158.35 160.341 1154.01C194.892 1145.35 241.942 1142.29 293.275 1146.97C344.607 1151.64 390.333 1163.14 422.751 1177.9C438.969 1185.28 451.752 1193.43 460.248 1201.87C468.756 1210.31 472.753 1218.81 472.009 1226.99Z" fill="white" stroke="#283820" stroke-width="4"/>
<path d="M460.193 1226.4C459.639 1232.49 455.423 1238.69 446.51 1244.56C437.644 1250.4 424.81 1255.43 408.698 1259.25C376.526 1266.87 332.423 1269.43 283.953 1265.02C235.484 1260.61 192.248 1250.1 161.662 1236.76C146.343 1230.07 134.466 1222.8 126.682 1215.43C118.849 1208.02 115.78 1201.15 116.332 1195.1C116.885 1189.02 121.131 1182.78 130.117 1176.87C139.05 1170.99 151.972 1165.92 168.168 1162.05C200.508 1154.33 244.777 1151.67 293.238 1156.08C341.699 1160.49 384.761 1171.1 415.175 1184.53C430.407 1191.26 442.201 1198.58 449.925 1205.98C457.696 1213.42 460.747 1220.32 460.193 1226.4Z" fill="#9C9C9C" fill-opacity="0.25" stroke="#283820" stroke-width="10"/>
<path d="M222 726.5C354.5 711 526.6 636 565 460C613 240 258.5 516.5 242 244" stroke="#F13625" stroke-width="9" stroke-linecap="round"/>
<path d="M111 762.5C152.5 827 517.1 701.5 555.5 525.5C603.5 305.5 187 501 241.5 133" stroke="#F13625" stroke-width="9" stroke-linecap="round"/>
<path d="M217.005 47.0097C216.688 68.7233 232.723 88.0506 240.781 95C250.291 77.2987 281.2 59.9907 265.746 29.7017C254.14 6.95688 217.401 19.8676 217.005 47.0097Z" fill="#F13625"/>
<ellipse cx="253" cy="45.5" rx="8" ry="8.5" fill="#F0DCDB"/>
<ellipse cx="272.5" cy="1449" rx="190.5" ry="32" fill="#283820" fill-opacity="0.61"/>
<path d="M369.051 596.53C388.457 602.803 407.39 598.03 413.749 593.402C413.979 584.773 408.532 573.115 405.77 568.724C403.561 565.211 392.437 565.011 387.151 565.35C380.893 566.143 368.727 565.436 370.122 556.262C371.518 547.089 378.553 545.932 381.896 546.501C385.149 550.425 394.655 553.748 406.038 558.657C417.574 557.812 415.894 548.844 413.611 544.466C419.517 538.867 429.928 526.191 424.329 520.285C398.977 499.463 344.251 500.885 326.075 534.942C307.899 568.999 344.794 588.689 369.051 596.53Z" stroke="#F43425" stroke-width="9"/>
<path d="M413.826 590.525C424.474 586.971 448.187 575.608 457.85 558.595C453.34 555.021 424.831 573.548 411.141 583.258C425.778 574.053 455.361 554.787 456.604 551.366C458.156 547.09 449.489 548.299 408.456 575.991C437.755 556.622 455.318 545.575 453.918 544.099C452.519 542.623 411.753 560.248 405.733 570.162" stroke="#F43425" stroke-width="9"/>
<path d="M382.799 566.674C377.941 568.943 368.671 578.387 370.452 598.007" stroke="#F43425" stroke-width="9" stroke-linecap="round"/>
<path d="M334.995 578.354C345.074 578.142 366.749 574.881 372.807 563.529" stroke="#F43425" stroke-width="9" stroke-linecap="round"/>
<path d="M368.569 560.538C358.375 565.064 335.535 568.87 325.731 547.885" stroke="#F43425" stroke-width="9" stroke-linecap="round"/>
<path d="M383.297 547.977C381.999 542.666 382.038 530.386 392.576 523.758" stroke="#F43425" stroke-width="9" stroke-linecap="round"/>
<path d="M370.162 554.823C360.159 552.159 341.456 541.107 346.67 518.219" stroke="#F43425" stroke-width="9" stroke-linecap="round"/>
<mask id="path-18-inside-1_801_117" fill="white">
<path fill-rule="evenodd" clip-rule="evenodd" d="M132.992 395.077C227.216 454.134 300.83 405.25 333.772 377.406L333.148 376.656C346.365 363.852 350.394 343.022 341.704 324.874C330.932 302.376 304.694 292.52 283.1 302.859C280.4 304.152 277.9 305.7 275.614 307.462L274.743 306.414C261.961 320.805 225.362 341.012 182.648 323.237C144.206 307.24 141.964 277.84 147.81 247.4C154.64 235.023 155.02 217.914 147.472 202.151C136.17 178.548 111.376 166.9 92.0927 176.133C82.7896 180.588 76.4685 189.088 73.6864 199.345C53.5136 242.18 45.6895 340.358 132.992 395.077Z"/>
</mask>
<path d="M333.772 377.406L339.582 384.279L346.4 378.516L340.692 371.651L333.772 377.406ZM132.992 395.077L137.771 387.451L137.771 387.451L132.992 395.077ZM333.148 376.656L326.886 370.191L320.895 375.995L326.228 382.41L333.148 376.656ZM275.614 307.462L268.694 313.216L274.239 319.885L281.109 314.59L275.614 307.462ZM274.743 306.414L281.663 300.66L274.967 292.608L268.013 300.438L274.743 306.414ZM182.648 323.237L186.106 314.928L186.106 314.928L182.648 323.237ZM147.81 247.4L139.93 243.052L139.241 244.301L138.972 245.702L147.81 247.4ZM73.6864 199.345L81.8286 203.179L82.1655 202.464L82.3725 201.701L73.6864 199.345ZM327.962 370.532C311.95 384.066 286.577 402.24 254.241 410.083C222.258 417.841 182.793 415.669 137.771 387.451L128.212 402.703C177.415 433.542 221.869 436.457 258.484 427.576C294.747 418.78 322.652 398.59 339.582 384.279L327.962 370.532ZM326.228 382.41L326.852 383.16L340.692 371.651L340.069 370.901L326.228 382.41ZM333.587 328.761C340.642 343.495 337.263 360.14 326.886 370.191L339.41 383.12C355.468 367.565 360.146 342.548 349.822 320.987L333.587 328.761ZM286.987 310.977C303.787 302.933 324.809 310.429 333.587 328.761L349.822 320.987C337.055 294.323 305.601 282.107 279.214 294.742L286.987 310.977ZM281.109 314.59C282.899 313.21 284.86 311.995 286.987 310.977L279.214 294.742C275.94 296.309 272.902 298.189 270.12 300.334L281.109 314.59ZM267.822 312.168L268.694 313.216L282.534 301.708L281.663 300.66L267.822 312.168ZM179.19 331.547C226.17 351.096 266.699 329.023 281.472 312.391L268.013 300.438C257.223 312.587 224.554 330.928 186.106 314.928L179.19 331.547ZM138.972 245.702C135.951 261.431 134.698 278.301 140.132 293.726C145.748 309.665 158.013 322.734 179.19 331.547L186.106 314.928C168.841 307.744 160.763 298.114 157.11 287.744C153.274 276.859 153.823 263.809 156.649 249.097L138.972 245.702ZM139.354 206.038C145.815 219.531 145.177 233.544 139.93 243.052L155.69 251.748C164.103 236.502 164.224 216.297 155.589 198.264L139.354 206.038ZM95.9794 184.251C109.323 177.861 129.428 185.308 139.354 206.038L155.589 198.264C142.913 171.789 113.429 155.938 88.2059 168.016L95.9794 184.251ZM82.3725 201.701C84.5846 193.546 89.409 187.397 95.9794 184.251L88.2059 168.016C76.1702 173.779 68.3524 184.631 65.0003 196.989L82.3725 201.701ZM137.771 387.451C96.5353 361.605 77.9507 325.741 71.9009 291.202C65.7923 256.327 72.5167 222.953 81.8286 203.179L65.5441 195.51C54.6832 218.572 47.4092 255.705 54.1709 294.307C60.9914 333.246 82.1458 373.83 128.212 402.703L137.771 387.451Z" fill="#F13625" mask="url(#path-18-inside-1_801_117)"/>
<path d="M68.6121 220.393C65.0338 235.532 91.1342 244.651 107.102 245.885C112.859 246.33 112.172 242.955 107.17 240.07C87.6581 228.815 74.0651 197.322 68.6121 220.393Z" fill="#F13625"/>
<path d="M108.551 287.397C87.0753 290.668 67.3611 290.215 71.5221 315.562C72.0908 319.026 76.9013 319.783 79.2985 317.218C96.5783 298.731 133.16 283.65 108.551 287.397Z" fill="#F13625"/>
<path d="M307.402 393.769C288.011 403.054 282.254 377.666 280.765 355.388C278.889 327.308 297.846 362.38 307.402 393.769Z" fill="#F13625"/>
<path d="M253.737 417.248C245.968 412.024 230.056 396.007 228.568 373.728C226.691 345.648 244.181 385.859 253.737 417.248Z" fill="#F13625"/>
<path d="M118.826 384.278C106.764 369.541 112.771 359.225 124.277 340.09C138.78 315.972 130.641 346.467 118.826 384.278Z" fill="#F13625"/>
<path d="M177.174 415.102C160.752 403.563 164.402 385.967 172.263 365.069C182.172 338.728 181.46 382.572 177.174 415.102Z" fill="#F13625"/>
<path d="M135.75 173.278L124.237 178.791C121.992 179.866 119.321 178.651 118.655 176.252L115.82 166.031C114.966 162.953 117.886 160.165 120.922 161.161L135.27 165.87C138.696 166.994 139.002 171.721 135.75 173.278Z" stroke="#F13625" stroke-width="9"/>
<path d="M354.102 335.346L342.396 330.257C340.113 329.264 339.281 326.45 340.658 324.376L346.524 315.539C348.291 312.877 352.31 313.258 353.546 316.204L359.385 330.131C360.78 333.456 357.409 336.783 354.102 335.346Z" stroke="#F13625" stroke-width="9"/>
<path d="M481.283 180.231C462.126 167.206 439.963 166.374 431.554 169.393C428.553 178.727 430.774 193.174 432.385 198.842C433.674 203.376 445.739 207.14 451.61 208.456C458.685 209.586 471.724 214.236 467.278 223.793C462.832 233.35 454.794 232.367 451.33 230.682C449.034 225.366 439.729 218.712 428.884 209.732C416.038 206.975 415.011 217.288 416.103 222.789C407.879 227.011 392.487 237.512 396.71 245.735C417.711 276.52 477.83 292.416 508.504 261.08C539.178 229.744 505.23 196.514 481.283 180.231Z" stroke="#F43425" stroke-width="9"/>
<path d="M430.554 172.504C417.811 172.985 388.336 177.813 372.376 193.281C376.154 198.616 413.142 187.505 431.164 181.284C412.272 186.653 373.876 198.226 371.431 201.56C368.375 205.727 378.21 207.173 431.775 190.063C393.657 201.84 370.986 208.283 372.042 210.339C373.097 212.395 423.161 206.176 432.886 197.286" stroke="#F43425" stroke-width="9"/>
<path d="M456.777 208.401C462.796 207.475 475.914 200.134 480.227 178.175" stroke="#F43425" stroke-width="9" stroke-linecap="round"/>
<path d="M512.62 210.905C501.563 207.923 476.892 204.568 466.668 215.014" stroke="#F43425" stroke-width="9" stroke-linecap="round"/>
<path d="M470.333 219.626C482.891 217.941 509.006 221.074 513.005 247.078" stroke="#F43425" stroke-width="9" stroke-linecap="round"/>
<path d="M450.274 228.626C449.996 234.83 446.039 248.206 432.436 252.073" stroke="#F43425" stroke-width="9" stroke-linecap="round"/>
<path d="M466.777 225.349C476.834 231.443 493.702 249.454 480.72 272.746" stroke="#F43425" stroke-width="9" stroke-linecap="round"/>
<path d="M195.423 661.716C189.242 669.689 163.63 690.024 145.08 696.17M195.423 661.716C200.721 654.037 211.844 633.17 213.957 611.141M195.423 661.716C180.655 610.088 173.952 551.305 238.985 571.292C294.647 588.398 210.683 655.721 195.423 661.716Z" stroke="#F13625" stroke-width="9"/>
<path d="M208.964 986.15C214.525 964.474 224.822 898.091 235.77 900.418C246.718 902.745 252.423 916.103 252.56 919.941C273.244 903.385 301.795 885.879 330.571 911.997C357.29 936.248 305.651 961.94 287.68 965.739C295.31 970.218 310.652 981.479 310.982 990.692C311.312 999.906 243.107 991.503 208.964 986.15ZM208.964 986.15C199.591 989.871 167.159 994.406 148.001 990.334M208.964 986.15C217.425 982.234 237.582 969.947 250.524 952.126" stroke="#F13625" stroke-width="9"/>
</svg>
